<?xml version="1.0" standalone="no"?>
<!DOCTYPE svg PUBLIC "-//W3C//DTD SVG 20010904//EN"
 "http://www.w3.org/TR/2001/REC-SVG-20010904/DTD/svg10.dtd">
<svg version="1.0" xmlns="http://www.w3.org/2000/svg"
 width="512.000000pt" height="512.000000pt" viewBox="0 0 512.000000 512.000000"
 preserveAspectRatio="xMidYMid meet">
<metadata>
Created by potrace 1.16, written by Peter Selinger 2001-2019
</metadata>
<g transform="translate(0.000000,512.000000) scale(0.100000,-0.100000)"
fill="#000000" stroke="none">
<path d="M1430 4353 c-169 -10 -381 -48 -416 -75 -18 -15 -24 -29 -24 -60 0
-60 73 -268 147 -420 178 -367 373 -555 681 -658 180 -60 345 -62 483 -6 l59
24 0 -684 0 -684 -23 0 c-41 0 -171 -41 -232 -73 -87 -47 -169 -127 -206 -202
l-31 -64 -112 -35 c-207 -65 -364 -155 -474 -269 -77 -80 -120 -168 -128 -258
-6 -60 -4 -67 19 -94 l25 -30 1239 -2 c985 -2 1243 0 1263 10 42 21 54 59 40
134 -17 97 -61 177 -145 259 -110 108 -283 202 -483 259 -47 14 -86 26 -87 28
-41 92 -59 121 -110 172 -73 74 -181 129 -295 153 l-80 17 0 309 0 310 26 -53
c95 -191 314 -294 558 -263 157 20 367 107 494 204 186 144 354 412 472 754
68 197 55 230 -96 257 -160 29 -266 39 -429 38 -301 0 -478 -44 -660 -165
-155 -104 -280 -239 -339 -366 l-25 -54 -3 280 c-3 243 -1 283 13 309 82 149
71 355 -28 525 -53 90 -198 235 -310 308 -150 98 -288 142 -508 162 -105 10
-154 10 -275 3z"/>
</g>
</svg>
